<?xml version="1.0" encoding="UTF-8"?>
<svg version="1.1" xmlns="http://www.w3.org/2000/svg" width="500" height="500">
<path d="M0 0 C165 0 330 0 500 0 C500 165 500 330 500 500 C335 500 170 500 0 500 C0 335 0 170 0 0 Z " fill="#FEFEFE" transform="translate(0,0)"/>
<path d="M0 0 C2.53894971 -0.00433844 5.07610643 -0.04064955 7.61474609 -0.07861328 C38.56536376 -0.29227966 68.3803787 11.94175429 90.71240234 33.39013672 C103.74794445 46.5347446 111.78338466 64.5120661 111.88427734 82.99560547 C111.74968161 94.16460386 108.98732602 103.79235278 105.57177734 114.37060547 C104.91177734 114.37060547 104.25177734 114.37060547 103.57177734 114.37060547 C103.28818359 115.11439453 103.00458984 115.85818359 102.71240234 116.62451172 C96.35705249 131.92523415 81.70393802 143.53960958 67.57177734 151.37060547 C66.42837891 152.00611328 65.28498047 152.64162109 64.10693359 153.29638672 C33.03363886 169.61947856 -0.16711658 169.89819182 -33.69165039 162.69189453 C-40.61741118 160.8610618 -40.61741118 160.8610618 -47.25244141 162.43701172 C-47.86732422 162.93072266 -48.48220703 163.42443359 -49.11572266 163.93310547 C-64.82367995 174.99947939 -85.59904675 178.67430185 -104.42822266 178.37060547 C-100.46136265 174.03673282 -96.16268766 171.12778643 -91.17822266 168.05810547 C-78.35093427 160.4314398 -78.35093427 160.4314398 -70.42822266 148.37060547 C-70.86381623 144.98931035 -72.02384373 143.4431738 -74.49072266 141.15576172 C-75.11865723 140.55844238 -75.7465918 139.96112305 -76.39355469 139.34570312 C-77.40071533 138.39896729 -77.40071533 138.39896729 -78.42822266 137.43310547 C-87.34953087 128.78642905 -95.4602797 118.90422179 -100.42822266 107.37060547 C-100.42822266 106.38060547 -100.42822266 105.39060547 -100.42822266 104.37060547 C-104.14338916 105.4452292 -104.14338916 105.4452292 -106.49072266 108.30810547 C-106.80009766 108.98873047 -107.10947266 109.66935547 -107.42822266 110.37060547 C-109.34142388 112.43097602 -110.64648509 113.30021914 -113.46728516 113.55419922 C-115.45520343 113.55771144 -117.44278153 113.46987752 -119.42822266 113.37060547 C-121.35936592 110.08050954 -122.61697204 107.87808386 -122.13525391 104.03076172 C-120.35073375 97.78987079 -117.49623964 92.07008366 -114.42822266 86.37060547 C-120.7396696 88.53453013 -124.53699883 92.12443053 -128.36572266 97.49560547 C-129.05279297 98.45337891 -129.73986328 99.41115234 -130.44775391 100.39794922 C-132.32542555 103.21630843 -133.94072801 106.08282007 -135.55322266 109.05810547 C-136.97509766 111.53076172 -136.97509766 111.53076172 -138.42822266 113.37060547 C-141.80322266 113.99560547 -141.80322266 113.99560547 -144.42822266 113.37060547 C-144.42822266 112.38060547 -144.42822266 111.39060547 -144.42822266 110.37060547 C-144.79947266 110.86560547 -145.17072266 111.36060547 -145.55322266 111.87060547 C-147.42822266 113.37060547 -147.42822266 113.37060547 -150.42822266 113.74560547 C-153.42822266 113.37060547 -153.42822266 113.37060547 -155.24072266 112.24560547 C-156.85050535 109.70384332 -157.09931275 107.33079467 -157.42822266 104.37060547 C-157.92451172 104.93650391 -158.42080078 105.50240234 -158.93212891 106.08544922 C-162.23363351 109.65007184 -164.50157924 112.06172433 -169.17822266 113.62060547 C-172.42822266 113.37060547 -172.42822266 113.37060547 -174.86572266 112.12060547 C-177.44245974 107.58554821 -177.26660317 103.44603211 -176.42822266 98.37060547 C-173.16138928 88.89201957 -167.67972637 81.42602581 -158.99072266 76.37060547 C-153.45089328 74.81556564 -148.72024745 74.38830913 -143.36572266 76.68310547 C-142.72634766 77.23998047 -142.08697266 77.79685547 -141.42822266 78.37060547 C-141.42822266 79.36060547 -141.42822266 80.35060547 -141.42822266 81.37060547 C-142.29447266 80.90654297 -142.29447266 80.90654297 -143.17822266 80.43310547 C-146.39938676 78.9120002 -148.27502059 78.06713124 -151.80322266 78.99560547 C-159.52688239 83.041332 -163.11278372 88.99294851 -167.42822266 96.37060547 C-168.06759766 97.44310547 -168.70697266 98.51560547 -169.36572266 99.62060547 C-170.67061173 102.99796543 -170.64353831 105.78201132 -170.42822266 109.37060547 C-166.59799717 109.04230043 -164.41950118 107.97752512 -161.80712891 105.14404297 C-159.36381543 102.00165113 -157.30206935 98.62381274 -155.20947266 95.24169922 C-152.71353235 91.21863754 -150.07419021 87.29594195 -147.42822266 83.37060547 C-145.11822266 83.70060547 -142.80822266 84.03060547 -140.42822266 84.37060547 C-140.98251953 85.40958984 -141.53681641 86.44857422 -142.10791016 87.51904297 C-147.80926495 98.414638 -147.80926495 98.414638 -150.42822266 110.37060547 C-145.5321004 109.02438621 -143.62253164 106.35242019 -141.11572266 102.18310547 C-140.73399902 101.57176758 -140.35227539 100.96042969 -139.95898438 100.33056641 C-136.73613014 95.08727652 -133.82879899 89.6757642 -131.0793457 84.1706543 C-129.43973847 80.9507549 -128.50556642 79.42216798 -125.42822266 77.37060547 C-123.09622878 77.29155483 -120.75989644 77.28261778 -118.42822266 77.37060547 C-118.80333984 77.83208984 -119.17845703 78.29357422 -119.56494141 78.76904297 C-123.65332585 83.97993095 -126.64869051 89.36878384 -129.42822266 95.37060547 C-128.97833984 94.80212891 -128.52845703 94.23365234 -128.06494141 93.64794922 C-122.70009945 87.20798863 -116.31594192 81.35045473 -108.20947266 78.62451172 C-105.33303161 76.59964862 -105.28348182 73.51616248 -104.67822266 70.24560547 C-101.89744709 57.48888832 -96.01348863 46.20575503 -87.42822266 36.37060547 C-86.72632813 35.47341797 -86.72632813 35.47341797 -86.01025391 34.55810547 C-72.3559739 17.42332271 -49.34044828 7.26370736 -28.45361328 2.8125 C-27.09127167 2.5152678 -25.73528775 2.18742531 -24.38720703 1.83105469 C-16.34644809 -0.11647978 -8.22486777 -0.00156575 0 0 Z " fill="#DDDDDD" transform="translate(325.42822265625,138.62939453125)"/>
<path d="M0 0 C3.3 0 6.6 0 10 0 C12.52344692 11.06923776 12.09560473 23.01224602 12.125 34.3125 C12.13188843 35.80692627 12.13188843 35.80692627 12.13891602 37.33154297 C12.13690186 38.2701416 12.1348877 39.20874023 12.1328125 40.17578125 C12.13168457 41.01020752 12.13055664 41.84463379 12.12939453 42.7043457 C12 45 12 45 11.49560547 46.92382812 C10.83987205 49.670802 10.90666431 52.22043239 10.9375 55.04296875 C10.94910156 56.77643555 10.94910156 56.77643555 10.9609375 58.54492188 C10.98027344 60.34799805 10.98027344 60.34799805 11 62.1875 C11.02537737 64.57677897 11.04645505 66.96610888 11.0625 69.35546875 C11.07410156 70.41403076 11.08570313 71.47259277 11.09765625 72.56323242 C11 75 11 75 10 76 C6.5625 76.1875 6.5625 76.1875 3 76 C2.34 75.34 1.68 74.68 1 74 C-1.66949409 73.75684344 -1.66949409 73.75684344 -4.625 73.875 C-6.12933594 73.90207031 -6.12933594 73.90207031 -7.6640625 73.9296875 C-8.43492187 73.95289063 -9.20578125 73.97609375 -10 74 C-7.79479037 71.75709448 -5.61196896 69.76939833 -3 68 C-2.34 68 -1.68 68 -1 68 C-1 67.01 -1 66.02 -1 65 C-1.51949219 65.42152344 -2.03898437 65.84304687 -2.57421875 66.27734375 C-9.50087873 71.71880492 -9.50087873 71.71880492 -14 72 C-12.515 72.99 -12.515 72.99 -11 74 C-12.61342975 75.61342975 -14.33389983 75.28653648 -16.5625 75.375 C-23.03268987 75.32865194 -27.02349183 72.6660334 -31.72265625 68.45703125 C-33 67 -33 67 -33 65 C-31.35 64.67 -29.7 64.34 -28 64 C-28.2165625 63.1646875 -28.2165625 63.1646875 -28.4375 62.3125 C-30.14545455 55.29090909 -30.14545455 55.29090909 -29 53 C-31.78388975 54.70625501 -32.85384206 55.47626739 -33.75 58.6875 C-33.8325 59.450625 -33.915 60.21375 -34 61 C-34.99 61 -35.98 61 -37 61 C-37.226875 61.86625 -37.45375 62.7325 -37.6875 63.625 C-39.65367896 68.68088876 -42.43516593 71.95677729 -47 75 C-49.04296875 75.1953125 -49.04296875 75.1953125 -51.1875 75.125 C-52.445625 75.08375 -53.70375 75.0425 -55 75 C-56.93114326 71.70990407 -58.18874938 69.50747839 -57.70703125 65.66015625 C-55.9225111 59.41926532 -53.06801698 53.69947819 -50 48 C-56.31144694 50.16392467 -60.10877618 53.75382506 -63.9375 59.125 C-64.62457031 60.08277344 -65.31164062 61.04054687 -66.01953125 62.02734375 C-67.89720289 64.84570296 -69.51250535 67.7122146 -71.125 70.6875 C-72.546875 73.16015625 -72.546875 73.16015625 -74 75 C-77.375 75.625 -77.375 75.625 -80 75 C-80 74.01 -80 73.02 -80 72 C-80.37125 72.495 -80.7425 72.99 -81.125 73.5 C-83 75 -83 75 -86 75.375 C-89 75 -89 75 -90.8125 73.875 C-92.42228269 71.33323785 -92.67109009 68.9601892 -93 66 C-93.49628906 66.56589844 -93.99257812 67.13179688 -94.50390625 67.71484375 C-97.80541086 71.27946637 -100.07335658 73.69111886 -104.75 75.25 C-108 75 -108 75 -110.4375 73.75 C-113.01423708 69.21494274 -112.83838051 65.07542664 -112 60 C-108.73316662 50.5214141 -103.25150371 43.05542034 -94.5625 38 C-89.02267062 36.44496017 -84.2920248 36.01770366 -78.9375 38.3125 C-78.298125 38.869375 -77.65875 39.42625 -77 40 C-77 40.99 -77 41.98 -77 43 C-77.5775 42.690625 -78.155 42.38125 -78.75 42.0625 C-81.97116411 40.54139473 -83.84679793 39.69652577 -87.375 40.625 C-95.09865973 44.67072653 -98.68456107 50.62234304 -103 58 C-103.639375 59.0725 -104.27875 60.145 -104.9375 61.25 C-106.24238908 64.62735996 -106.21531565 67.41140585 -106 71 C-102.16977451 70.67169496 -99.99127852 69.60691965 -97.37890625 66.7734375 C-94.93559277 63.63104566 -92.8738467 60.25320727 -90.78125 56.87109375 C-88.28530969 52.84803207 -85.64596755 48.92533648 -83 45 C-80.69 45.33 -78.38 45.66 -76 46 C-76.55429688 47.03898437 -77.10859375 48.07796875 -77.6796875 49.1484375 C-83.38104229 60.04403253 -83.38104229 60.04403253 -86 72 C-81.10387774 70.65378075 -79.19430899 67.98181472 -76.6875 63.8125 C-76.30577637 63.20116211 -75.92405273 62.58982422 -75.53076172 61.95996094 C-72.30790748 56.71667105 -69.40057633 51.30515873 -66.65112305 45.80004883 C-65.01151581 42.58014943 -64.07734376 41.05156251 -61 39 C-58.66800612 38.92094936 -56.33167378 38.91201231 -54 39 C-54.37511719 39.46148437 -54.75023437 39.92296875 -55.13671875 40.3984375 C-59.2251032 45.60932548 -62.22046785 50.99817837 -65 57 C-64.55011719 56.43152344 -64.10023438 55.86304688 -63.63671875 55.27734375 C-57.99819317 48.50885312 -50.92588591 41.40921492 -41.8125 40.0625 C-40.4203125 40.0315625 -40.4203125 40.0315625 -39 40 C-40.19955604 43.21848095 -41.60840216 46.28764191 -43.12890625 49.36328125 C-43.52400391 50.16830078 -43.91910156 50.97332031 -44.32617188 51.80273438 C-45.14651693 53.4680478 -45.97458666 55.12957949 -46.81054688 56.78710938 C-49.33143327 61.96503479 -50.62244756 66.2439812 -51 72 C-46.31125961 71.31384287 -43.99890672 69.32043401 -41.125 65.75 C-37.49564035 60.25433944 -37.54936988 55.83013267 -37.86328125 49.3984375 C-38.17351991 41.68679093 -36.67134071 35.61599146 -31.70703125 29.625 C-26.6189512 24.78142723 -19.9269137 24.19192877 -13.1875 23.75 C-9 24 -9 24 0 27 C0 18.09 0 9.18 0 0 Z " fill="#2A2A2A" transform="translate(261,177)"/>
<path d="M0 0 C1.17103271 0.05063599 1.17103271 0.05063599 2.36572266 0.10229492 C6.88056255 0.4109398 10.10014452 0.96737259 13.75 3.875 C17.19197378 8.42043009 18.900424 12.73944837 18.9375 18.375 C18.95167969 19.3546875 18.96585937 20.334375 18.98046875 21.34375 C18.75 23.875 18.75 23.875 16.75 25.875 C13.58434163 26.97100508 10.58015578 27.00389599 7.25 27.0078125 C5.6721875 27.00974609 5.6721875 27.00974609 4.0625 27.01171875 C2.969375 27.00785156 1.87625 27.00398438 0.75 27 C-0.343125 27.00386719 -1.43625 27.00773437 -2.5625 27.01171875 C-3.614375 27.01042969 -4.66625 27.00914062 -5.75 27.0078125 C-7.18859375 27.00612061 -7.18859375 27.00612061 -8.65625 27.00439453 C-11.00803316 26.88707101 -13.00052606 26.54281258 -15.25 25.875 C-14.99379316 27.4815676 -14.71944129 29.0852483 -14.4375 30.6875 C-14.28667969 31.58082031 -14.13585937 32.47414062 -13.98046875 33.39453125 C-12.78349073 37.45913577 -10.75720711 38.59096402 -7.125 40.625 C-2.65676794 42.41977104 1.11238746 41.61032004 5.75 40.875 C7.76951851 40.67383192 9.79045195 40.48641171 11.8125 40.3125 C12.75222656 40.22871094 13.69195312 40.14492187 14.66015625 40.05859375 C15.69462891 39.96771484 15.69462891 39.96771484 16.75 39.875 C17.245 43.34 17.245 43.34 17.75 46.875 C9.80591963 52.17105358 -2.32493118 52.11512757 -11.453125 50.48046875 C-17.86992904 48.24036824 -22.31124598 41.79873908 -25.6875 36.1875 C-28.64484858 29.61704293 -28.25727994 22.30293687 -26.26171875 15.51171875 C-24.00762393 9.79622754 -21.88725862 5.15445846 -16.5234375 1.79296875 C-11.00383321 -0.33082961 -5.8200338 -0.27750613 0 0 Z " fill="#2A2A2A" transform="translate(312.25,201.125)"/>
<path d="M0 0 C2.97 0 5.94 0 9 0 C9.33 7.92 9.66 15.84 10 24 C14.64685933 23.4836823 19.06347798 22.98970627 23.625 22.25 C28.83729594 21.69704339 32.57374047 23.04892955 36.6953125 26.36328125 C40.3136253 29.74561712 42.72326366 32.82802352 43.1706543 37.95605469 C43.23413117 40.28682181 43.22464147 42.60617656 43.1875 44.9375 C43.18105469 45.77563232 43.17460937 46.61376465 43.16796875 47.47729492 C43.09226294 53.68339672 42.76103587 59.83596598 42.21875 66.01953125 C41.99820802 69.02441572 41.96398457 71.98820926 42 75 C38.7 75 35.4 75 32 75 C31.67 62.46 31.34 49.92 31 37 C24.56494236 34.22368827 24.56494236 34.22368827 17.9375 34.8125 C17.26589844 34.98394531 16.59429687 35.15539062 15.90234375 35.33203125 C13.71260938 36.01268777 13.71260938 36.01268777 11 38 C10.43887623 40.82362283 10.06524954 43.45896055 9.8125 46.3125 C9.73281982 47.11905029 9.65313965 47.92560059 9.57104492 48.7565918 C8.78567573 57.26405502 8.31760796 65.58803979 10 74 C6.37 74 2.74 74 -1 74 C-1.17247071 49.31811482 -0.67653394 24.67189732 0 0 Z " fill="#323232" transform="translate(389,178)"/>
<path d="M0 0 C2.75709272 2.75709272 2.91227349 3.68523493 3.3125 7.6875 C3.27122643 10.9304235 2.75909121 12.75547482 0.75 15.3125 C-2.82228037 18.64662835 -5.18783199 19.9375 -10.0625 19.9375 C-10.0625 19.2775 -10.0625 18.6175 -10.0625 17.9375 C-8.94875 17.504375 -7.835 17.07125 -6.6875 16.625 C-2.88737666 15.23838881 -2.88737666 15.23838881 -1.0625 11.9375 C-0.54275714 8.64579524 -0.89813989 7.22513019 -2.5625 4.3125 C-7.01783533 0.07993144 -11.79413853 -1.21514735 -17.875 -1.4375 C-27.28970629 -1.11933788 -38.31667633 1.73440242 -45.0625 8.6875 C-47.70160584 12.97604698 -47.71273616 14.97944929 -47.0625 19.9375 C-45.68743901 21.81640434 -45.68743901 21.81640434 -44.0625 22.9375 C-44.0625 23.5975 -44.0625 24.2575 -44.0625 24.9375 C-40.82215582 26.59574402 -37.52589073 28.12209994 -34.22412109 29.65258789 C-10.72061079 40.58907309 -10.72061079 40.58907309 -5.0625 47.9375 C-3.24112903 53.40161292 -3.51913642 58.90894264 -5 64.4375 C-9.04251246 72.50345646 -16.59706533 79.09583945 -24.0625 83.9375 C-24.73667969 84.38867188 -25.41085938 84.83984375 -26.10546875 85.3046875 C-32.35907545 89.1548133 -38.89722393 90.60693431 -46.0625 91.9375 C-47.05765625 92.123125 -48.0528125 92.30875 -49.078125 92.5 C-61.18921236 94.27544736 -74.38463668 92.99757428 -84.9921875 86.51953125 C-90.47314158 82.33125502 -95.94116089 76.94586944 -97.0625 69.9375 C-98.06085446 59.79293047 -95.7116279 52.23714806 -89.6875 44.0625 C-86.78238236 40.54643488 -84.15123628 37.98186814 -80.0625 35.9375 C-78.5775 36.4325 -78.5775 36.4325 -77.0625 36.9375 C-77.73345703 37.52144531 -77.73345703 37.52144531 -78.41796875 38.1171875 C-84.69952525 43.92997113 -89.60473871 51.48360119 -90.3359375 60.1953125 C-90.54180311 68.03404167 -90.7031617 74.87854203 -85.0625 80.9375 C-74.80341569 89.32634416 -62.82991031 89.76637899 -50.0625 88.9375 C-38.62098146 87.37016869 -25.57025148 82.40100764 -18.39453125 72.97265625 C-14.33862572 66.77580351 -12.32304248 62.45531814 -13.0625 54.9375 C-13.91229475 52.18493756 -13.91229475 52.18493756 -15.0625 49.9375 C-15.3925 48.9475 -15.7225 47.9575 -16.0625 46.9375 C-17.74779576 45.88337407 -17.74779576 45.88337407 -20.0625 44.9375 C-21.2071875 44.36515625 -22.351875 43.7928125 -23.53125 43.203125 C-24.50324341 42.71730957 -24.50324341 42.71730957 -25.49487305 42.22167969 C-26.89776877 41.51998335 -28.30026234 40.81748251 -29.70239258 40.11425781 C-32.99508046 38.46400773 -36.29162962 36.82634561 -39.60546875 35.21875 C-40.64316406 34.7134375 -41.68085937 34.208125 -42.75 33.6875 C-43.66136719 33.24921875 -44.57273438 32.8109375 -45.51171875 32.359375 C-50.18354338 29.7551726 -53.95307224 26.93351311 -56.0625 21.9375 C-56.86724711 17.7367201 -56.84905369 14.39033922 -54.78515625 10.578125 C-53.30723464 8.54011085 -51.88741819 6.67259061 -50.0625 4.9375 C-49.4025 4.9375 -48.7425 4.9375 -48.0625 4.9375 C-48.0625 4.2775 -48.0625 3.6175 -48.0625 2.9375 C-34.68806762 -6.01417035 -13.99646583 -9.42619127 0 0 Z " fill="#0D0D0D" transform="translate(147.0625,169.0625)"/>
<path d="M0 0 C0.639375 0.556875 1.27875 1.11375 1.9375 1.6875 C1.9375 2.6775 1.9375 3.6675 1.9375 4.6875 C1.36 4.378125 0.7825 4.06875 0.1875 3.75 C-3.03366411 2.22889473 -4.90929793 1.38402577 -8.4375 2.3125 C-16.16115973 6.35822653 -19.74706107 12.30984304 -24.0625 19.6875 C-24.701875 20.76 -25.34125 21.8325 -26 22.9375 C-27.30488908 26.31485996 -27.27781565 29.09890585 -27.0625 32.6875 C-23.23227451 32.35919496 -21.05377852 31.29441965 -18.44140625 28.4609375 C-15.99809277 25.31854566 -13.9363467 21.94070727 -11.84375 18.55859375 C-9.34780969 14.53553207 -6.70846755 10.61283648 -4.0625 6.6875 C-1.7525 7.0175 0.5575 7.3475 2.9375 7.6875 C2.38320312 8.72648438 1.82890625 9.76546875 1.2578125 10.8359375 C-4.44354229 21.73153253 -4.44354229 21.73153253 -7.0625 33.6875 C-2.16637774 32.34128075 -0.25680899 29.66931472 2.25 25.5 C2.63172363 24.88866211 3.01344727 24.27732422 3.40673828 23.64746094 C6.62959252 18.40417105 9.53692367 12.99265873 12.28637695 7.48754883 C13.92598419 4.26764943 14.86015624 2.73906251 17.9375 0.6875 C20.26949388 0.60844936 22.60582622 0.59951231 24.9375 0.6875 C24.56238281 1.14898437 24.18726563 1.61046875 23.80078125 2.0859375 C19.7123968 7.29682548 16.71703215 12.68567837 13.9375 18.6875 C14.38738281 18.11902344 14.83726562 17.55054688 15.30078125 16.96484375 C20.93930683 10.19635312 28.01161409 3.09671492 37.125 1.75 C38.5171875 1.7190625 38.5171875 1.7190625 39.9375 1.6875 C38.74312537 4.89860555 37.33525769 7.95311221 35.80859375 11.015625 C35.21594727 12.21638672 35.21594727 12.21638672 34.61132812 13.44140625 C33.7925413 15.09450193 32.96451368 16.74305531 32.12695312 18.38671875 C29.41503066 23.93484163 28.29076608 28.51464009 27.9375 34.6875 C29.5875 34.6875 31.2375 34.6875 32.9375 34.6875 C32.4425 35.6775 32.4425 35.6775 31.9375 36.6875 C29.2975 36.6875 26.6575 36.6875 23.9375 36.6875 C22.00635674 33.39740407 20.74875062 31.19497839 21.23046875 27.34765625 C23.0149889 21.10676532 25.86948302 15.38697819 28.9375 9.6875 C22.62605306 11.85142467 18.82872382 15.44132506 15 20.8125 C14.31292969 21.77027344 13.62585938 22.72804687 12.91796875 23.71484375 C11.04029711 26.53320296 9.42499465 29.3997146 7.8125 32.375 C6.390625 34.84765625 6.390625 34.84765625 4.9375 36.6875 C1.5625 37.3125 1.5625 37.3125 -1.0625 36.6875 C-1.0625 35.6975 -1.0625 34.7075 -1.0625 33.6875 C-1.43375 34.1825 -1.805 34.6775 -2.1875 35.1875 C-4.0625 36.6875 -4.0625 36.6875 -7.0625 37.0625 C-10.0625 36.6875 -10.0625 36.6875 -11.875 35.5625 C-13.48478269 33.02073785 -13.73359009 30.6476892 -14.0625 27.6875 C-14.80693359 28.53634766 -14.80693359 28.53634766 -15.56640625 29.40234375 C-18.86791086 32.96696637 -21.13585658 35.37861886 -25.8125 36.9375 C-29.0625 36.6875 -29.0625 36.6875 -31.5 35.4375 C-34.07673708 30.90244274 -33.90088051 26.76292664 -33.0625 21.6875 C-29.79566662 12.2089141 -24.31400371 4.74292034 -15.625 -0.3125 C-10.08517062 -1.86753983 -5.3545248 -2.29479634 0 0 Z " fill="#0D0D0D" transform="translate(182.0625,215.3125)"/>
<path d="M0 0 C0.79728516 -0.00773438 1.59457031 -0.01546875 2.41601562 -0.0234375 C6.34431685 -0.01022202 8.35029969 0.02519979 11.6875 2.25 C12.09593923 4.96203652 11.82086867 7.4937142 11.6875 10.25 C7.6875 10.25 7.6875 10.25 4.875 9.25 C1.25245252 8.11351452 -1.53679475 7.89380139 -5.3125 8.25 C-7.3125 9.25 -7.3125 9.25 -8.3125 11.25 C-8.67740509 13.24448123 -9.0135872 15.24456682 -9.3125 17.25 C-8.42046875 17.37117188 -7.5284375 17.49234375 -6.609375 17.6171875 C-5.43890625 17.78476563 -4.2684375 17.95234375 -3.0625 18.125 C-1.32226562 18.36863281 -1.32226562 18.36863281 0.453125 18.6171875 C3.26943313 19.16820431 5.23967557 19.80796482 7.6875 21.25 C7.3575 22.24 7.0275 23.23 6.6875 24.25 C4.12492878 23.77121172 1.56244141 23.29198207 -1 22.8125 C-1.72123047 22.67779297 -2.44246094 22.54308594 -3.18554688 22.40429688 C-6.89938798 21.70901155 -10.60966254 21.00225298 -14.3125 20.25 C-14.3125 21.24 -14.3125 22.23 -14.3125 23.25 C-12.6625 22.92 -11.0125 22.59 -9.3125 22.25 C-9.3125 22.91 -9.3125 23.57 -9.3125 24.25 C-8.72082031 24.43175781 -8.12914062 24.61351562 -7.51953125 24.80078125 C0.99244164 27.50850509 0.99244164 27.50850509 4.6875 30.25 C4.6875 30.91 4.6875 31.57 4.6875 32.25 C6.3375 32.25 7.9875 32.25 9.6875 32.25 C8.6975 34.725 8.6975 34.725 7.6875 37.25 C9.1725 37.745 9.1725 37.745 10.6875 38.25 C9.90375 38.518125 9.12 38.78625 8.3125 39.0625 C5.40635077 40.09814432 5.40635077 40.09814432 3.6875 43.25 C1.69577818 43.94100553 -0.30411804 44.60902703 -2.3125 45.25 C-2.6425 45.91 -2.9725 46.57 -3.3125 47.25 C-2.24 46.940625 -1.1675 46.63125 -0.0625 46.3125 C1.9647515 45.73811207 4.00064425 45.18407489 6.0625 44.75 C6.866875 44.5025 6.866875 44.5025 7.6875 44.25 C8.0175 43.59 8.3475 42.93 8.6875 42.25 C10.1725 41.755 10.1725 41.755 11.6875 41.25 C12.90619929 38.74552484 12.90619929 38.74552484 13.6875 36.25 C14.3475 36.91 15.0075 37.57 15.6875 38.25 C11.66303517 47.26223242 11.66303517 47.26223242 7.6875 49.25 C-2.18666118 52.65488316 -11.62308366 50.47980545 -21.3125 47.25 C-21.3125 44.28 -21.3125 41.31 -21.3125 38.25 C-20.03375 38.559375 -18.755 38.86875 -17.4375 39.1875 C-7.61432791 41.73713998 -7.61432791 41.73713998 1.6875 39.25 C2.94445267 37.47286468 2.94445267 37.47286468 2.6875 35.25 C-1.42613715 29.9794024 -6.40812041 27.81049431 -12.875 26.5625 C-17.76284017 24.69623375 -20.14553372 21.98833121 -22.3125 17.25 C-23.05185947 13.4211742 -23.1184609 10.07062379 -22.3125 6.25 C-17.24068062 -0.24826857 -7.61590394 -0.07571735 0 0 Z " fill="#2B2B2B" transform="translate(361.3125,200.75)"/>
<path d="M0 0 C5.18446577 2.86276953 9.28079329 6.19767736 11 12 C11.61389415 18.44588855 12.00421537 23.6278287 8 29 C4.85253738 32.08654398 2.4136845 32.45610407 -1.9375 32.5 C-6.23135467 32.40062943 -7.5885342 32.30448469 -11.125 29.6875 C-15.84795627 22.91792935 -15.85830511 17.03685695 -15 9 C-13.68243815 6.02367502 -12.59641782 5.12434185 -10 3 C-9.360625 2.38125 -8.72125 1.7625 -8.0625 1.125 C-5.01972753 -0.53469408 -3.43946973 -0.59529284 0 0 Z " fill="#DADADA" transform="translate(250,210)"/>
<path d="M0 0 C2.97 0 5.94 0 9 0 C9.33 7.92 9.66 15.84 10 24 C14.64685933 23.4836823 19.06347798 22.98970627 23.625 22.25 C28.83729594 21.69704339 32.57374047 23.04892955 36.6953125 26.36328125 C40.3136253 29.74561712 42.72326366 32.82802352 43.1706543 37.95605469 C43.23413117 40.28682181 43.22464147 42.60617656 43.1875 44.9375 C43.18105469 45.77563232 43.17460937 46.61376465 43.16796875 47.47729492 C43.09226294 53.68339672 42.76103587 59.83596598 42.21875 66.01953125 C41.99820802 69.02441572 41.96398457 71.98820926 42 75 C40.68 75 39.36 75 38 75 C38 74.34 38 73.68 38 73 C37.01 72.505 37.01 72.505 36 72 C36.99 72 37.98 72 39 72 C38.91621094 70.85402344 38.83242188 69.70804687 38.74609375 68.52734375 C38.64284747 66.99742154 38.54000433 65.4674721 38.4375 63.9375 C38.35338867 62.80924805 38.35338867 62.80924805 38.26757812 61.65820312 C37.96128808 56.94133636 38.18149065 52.68369239 39 48 C39.19223635 46.52144142 39.38075969 45.04238538 39.5625 43.5625 C39.706875 42.386875 39.85125 41.21125 40 40 C39.01 39.67 38.02 39.34 37 39 C37.99 38.01 38.98 37.02 40 36 C39.34 36 38.68 36 38 36 C38 34.68 38 33.36 38 32 C35.525 32.495 35.525 32.495 33 33 C33.33 31.68 33.66 30.36 34 29 C32.35 29.33 30.7 29.66 29 30 C28.67 29.34 28.34 28.68 28 28 C28.66 28 29.32 28 30 28 C30 27.34 30 26.68 30 26 C28.35 26 26.7 26 25 26 C25 26.66 25 27.32 25 28 C24.34 28 23.68 28 23 28 C23 27.34 23 26.68 23 26 C22.18015625 26.3609375 21.3603125 26.721875 20.515625 27.09375 C19.43796875 27.5578125 18.3603125 28.021875 17.25 28.5 C16.18265625 28.9640625 15.1153125 29.428125 14.015625 29.90625 C11 31 11 31 7 31 C5.9407082 27.82212459 5.88541061 25.57411057 5.90234375 22.23828125 C5.90556641 21.12001953 5.90878906 20.00175781 5.91210938 18.84960938 C5.92048828 17.68236328 5.92886719 16.51511719 5.9375 15.3125 C5.94201172 14.13365234 5.94652344 12.95480469 5.95117188 11.74023438 C5.96296727 8.82677211 5.9794273 5.91341137 6 3 C5.01 3 4.02 3 3 3 C3.16226074 3.84997559 3.32452148 4.69995117 3.49169922 5.57568359 C4.00530113 9.03571259 4.12940739 12.29299058 4.1328125 15.7890625 C4.13410156 17.06007812 4.13539063 18.33109375 4.13671875 19.640625 C4.13285156 20.95546875 4.12898438 22.2703125 4.125 23.625 C4.1285651 24.96093845 4.13246834 26.29687605 4.13671875 27.6328125 C4.13542969 28.90125 4.13414062 30.1696875 4.1328125 31.4765625 C4.13168457 32.63236816 4.13055664 33.78817383 4.12939453 34.97900391 C4.01987397 37.53599894 3.68159226 39.55984644 3 42 C2.9073696 44.20678314 2.87001417 46.41627925 2.875 48.625 C2.87242187 49.77226562 2.86984375 50.91953125 2.8671875 52.1015625 C2.80079553 54.93976044 2.80079553 54.93976044 4 57 C3.34 57 2.68 57 2 57 C2.33 58.32 2.66 59.64 3 61 C2.34 61 1.68 61 1 61 C1.66 63.97 2.32 66.94 3 70 C5.97 69.505 5.97 69.505 9 69 C9.33 70.65 9.66 72.3 10 74 C6.37 74 2.74 74 -1 74 C-1.17247071 49.31811482 -0.67653394 24.67189732 0 0 Z " fill="#272727" transform="translate(389,178)"/>
<path d="M0 0 C0.99 0 1.98 0 3 0 C4.12021614 3.71836449 4.34293165 7.45830747 4.5625 11.3125 C4.6042334 12.03655029 4.6459668 12.76060059 4.68896484 13.5065918 C5.02682013 20.10718084 5.1077973 26.70405558 5.125 33.3125 C5.13188843 34.80680542 5.13188843 34.80680542 5.13891602 36.33129883 C5.13690186 37.26997803 5.1348877 38.20865723 5.1328125 39.17578125 C5.13168457 40.01020752 5.13055664 40.84463379 5.12939453 41.7043457 C5 44 5 44 4.49560547 45.92382812 C3.83987205 48.670802 3.90666431 51.22043239 3.9375 54.04296875 C3.94523437 55.19861328 3.95296875 56.35425781 3.9609375 57.54492188 C3.97382813 58.74697266 3.98671875 59.94902344 4 61.1875 C4.02537737 63.57677897 4.04645505 65.96610888 4.0625 68.35546875 C4.07410156 69.41403076 4.08570313 70.47259277 4.09765625 71.56323242 C4 74 4 74 3 75 C-0.4375 75.1875 -0.4375 75.1875 -4 75 C-4.66 74.34 -5.32 73.68 -6 73 C-8.66949409 72.75684344 -8.66949409 72.75684344 -11.625 72.875 C-13.12933594 72.90207031 -13.12933594 72.90207031 -14.6640625 72.9296875 C-15.43492187 72.95289063 -16.20578125 72.97609375 -17 73 C-14.79479037 70.75709448 -12.61196896 68.76939833 -10 67 C-9.34 67 -8.68 67 -8 67 C-7.67 66.01 -7.34 65.02 -7 64 C-6.34 64 -5.68 64 -5 64 C-5 63.34 -5 62.68 -5 62 C-4.01 61.34 -3.02 60.68 -2 60 C-2 58.68 -2 57.36 -2 56 C-1.38655243 54.31301918 -0.72904086 52.64034193 0 51 C-0.66 50.67 -1.32 50.34 -2 50 C-1.34 50 -0.68 50 0 50 C-0.01160156 49.22914063 -0.02320313 48.45828125 -0.03515625 47.6640625 C-0.04417969 46.66117188 -0.05320312 45.65828125 -0.0625 44.625 C-0.07410156 43.62726563 -0.08570313 42.62953125 -0.09765625 41.6015625 C0 39 0 39 1 37 C0.401875 37.20625 -0.19625 37.4125 -0.8125 37.625 C-3 38 -3 38 -6 36 C-3.69 35.34 -1.38 34.68 1 34 C0.01 33.34 -0.98 32.68 -2 32 C-1.34 32 -0.68 32 0 32 C0 30.35 0 28.7 0 27 C-0.99 26.67 -1.98 26.34 -3 26 C-2.814375 24.9275 -2.62875 23.855 -2.4375 22.75 C-2.06151957 19.52731064 -2.08506734 17.97353115 -3 15 C-2 14 -2 14 0 13 C-0.17402344 12.43796875 -0.34804688 11.8759375 -0.52734375 11.296875 C-1.05053346 8.75443245 -0.90204838 6.81547663 -0.5625 4.25 C-0.46066406 3.45078125 -0.35882813 2.6515625 -0.25390625 1.828125 C-0.17011719 1.22484375 -0.08632813 0.6215625 0 0 Z " fill="#373737" transform="translate(268,178)"/>
<path d="M0 0 C0.80630859 -0.01224609 1.61261719 -0.02449219 2.44335938 -0.03710938 C3.21873047 -0.03904297 3.99410156 -0.04097656 4.79296875 -0.04296875 C5.84327271 -0.04913208 5.84327271 -0.04913208 6.91479492 -0.05541992 C8.8125 0.1875 8.8125 0.1875 11.8125 2.1875 C12.22093923 4.89953652 11.94586867 7.4312142 11.8125 10.1875 C7.8125 10.1875 7.8125 10.1875 5 9.1875 C1.37745252 8.05101452 -1.41179475 7.83130139 -5.1875 8.1875 C-7.1875 9.1875 -7.1875 9.1875 -8.1875 11.1875 C-8.55240509 13.18198123 -8.8885872 15.18206682 -9.1875 17.1875 C-8.29546875 17.30867188 -7.4034375 17.42984375 -6.484375 17.5546875 C-5.31390625 17.72226563 -4.1434375 17.88984375 -2.9375 18.0625 C-1.19726562 18.30613281 -1.19726562 18.30613281 0.578125 18.5546875 C3.39443313 19.10570431 5.36467557 19.74546482 7.8125 21.1875 C7.4825 22.1775 7.1525 23.1675 6.8125 24.1875 C4.20783418 23.71092708 1.60378286 23.23135281 -1 22.75 C-1.73798828 22.61529297 -2.47597656 22.48058594 -3.23632812 22.34179688 C-6.30065076 21.77330263 -9.22678953 21.17440349 -12.1875 20.1875 C-13.425 20.31125 -13.425 20.31125 -14.6875 20.4375 C-17.1875 20.1875 -17.1875 20.1875 -19.0625 18.125 C-20.54742574 14.2476939 -20.41208794 12.14940215 -19.1875 8.1875 C-16.1875 5.875 -16.1875 5.875 -13.1875 4.1875 C-12.8575 3.5275 -12.5275 2.8675 -12.1875 2.1875 C-13.1775 1.8575 -14.1675 1.5275 -15.1875 1.1875 C-10.08735733 0.16090123 -5.17829078 0.00419975 0 0 Z " fill="#2F2F2F" transform="translate(361.1875,200.8125)"/>
<path d="M0 0 C-0.33 0.99 -0.66 1.98 -1 3 C-2.85625 3.680625 -2.85625 3.680625 -4.75 4.375 C-8.0566229 5.86179087 -8.92918216 6.86409718 -10.640625 10.1484375 C-11.87096209 13.40812369 -12.99719045 16.66372976 -14 20 C-12.68 20.33 -11.36 20.66 -10 21 C-10.474375 21.4125 -10.94875 21.825 -11.4375 22.25 C-13.16266518 24.182185 -13.56584875 25.48192275 -14 28 C-13.34 28.33 -12.68 28.66 -12 29 C-12.66 30.32 -13.32 31.64 -14 33 C-13.34 33 -12.68 33 -12 33 C-12 33.66 -12 34.32 -12 35 C-11.34 35.33 -10.68 35.66 -10 36 C-9.375 38.5625 -9.375 38.5625 -9 41 C-8.34 41 -7.68 41 -7 41 C-7 41.66 -7 42.32 -7 43 C-5.02 43 -3.04 43 -1 43 C-0.67 43.66 -0.34 44.32 0 45 C7.9566624 46.61830422 15.03384531 45.31480223 23 44 C17.39 44 11.78 44 6 44 C6 43.34 6 42.68 6 42 C8.58252893 41.49550598 11.16588703 40.99625699 13.75 40.5 C14.47960937 40.35691406 15.20921875 40.21382812 15.9609375 40.06640625 C19.39343532 39.41111121 22.49169491 39 26 39 C26.495 42.465 26.495 42.465 27 46 C19.05591963 51.29605358 6.92506882 51.24012757 -2.203125 49.60546875 C-8.61992904 47.36536824 -13.06124598 40.92373908 -16.4375 35.3125 C-19.39484858 28.74204293 -19.00727994 21.42793687 -17.01171875 14.63671875 C-14.70397657 8.7851991 -12.48108089 4.24585864 -7.0625 0.75 C-4.60654597 -0.14307419 -2.59354305 -0.14408573 0 0 Z " fill="#2B2B2B" transform="translate(303,202)"/>
<path d="M0 0 C1.8125 1.625 1.8125 1.625 3 3 C1.39125 3.53753906 1.39125 3.53753906 -0.25 4.0859375 C-4.41433471 5.87693658 -6.06698419 8.65459501 -8 12.625 C-8.66511835 13.88570532 -9.33573443 15.14352495 -10.01171875 16.3984375 C-10.50551025 17.31834473 -10.50551025 17.31834473 -11.00927734 18.25683594 C-13.84346045 23.24354549 -17.22195673 27.81463782 -22 31 C-24.6875 30.625 -24.6875 30.625 -27 30 C-28.19451214 21.04115896 -22.61044066 13.94841004 -17.4375 7.0625 C-14.4050993 3.32877315 -11.48199644 0.08587344 -7 -1.875 C-4.20194866 -2.04987821 -2.47862918 -1.27109189 0 0 Z " fill="#F6F6F6" transform="translate(181,218)"/>
<path d="M0 0 C2.89724063 0.08724816 5.79150135 0.19415927 8.6875 0.3125 C9.50412109 0.33505859 10.32074219 0.35761719 11.16210938 0.38085938 C15.88450796 0.59116862 19.16917047 0.95702032 23 4 C25.86373967 7.52460267 27.0761223 9.30685554 26.87109375 13.8671875 C26.40837648 16.67263866 25.92174563 19.30924759 25 22 C22.04335481 23.4783226 19.25770263 23.06032783 16 23 C16.33 22.34 16.66 21.68 17 21 C18.98 21 20.96 21 23 21 C22.93993922 19.54052295 22.8511311 18.08220728 22.75 16.625 C22.70359375 15.81289062 22.6571875 15.00078125 22.609375 14.1640625 C22.21574204 11.83974395 22.21574204 11.83974395 20.1015625 10.8046875 C19.40804687 10.53914062 18.71453125 10.27359375 18 10 C17.21625 9.505 16.4325 9.01 15.625 8.5 C10.21228097 5.4070177 7.01848621 4.7412399 0.875 6.0625 C-2.75506715 7.09131854 -4.73799659 7.77542565 -7.625 10.25 C-9.24546793 13.49093585 -10.17034598 16.4739704 -11 20 C-10.34 20 -9.68 20 -9 20 C-9.33 22.97 -9.66 25.94 -10 29 C-11.32 29 -12.64 29 -14 29 C-13.25 24.25 -13.25 24.25 -11 22 C-11.99 21.67 -12.98 21.34 -14 21 C-13.01686123 15.17878358 -11.8646061 10.6602603 -8 6 C-5.32655486 4.21770324 -4.26229641 4 -1 4 C-0.67 2.68 -0.34 1.36 0 0 Z " fill="#333333" transform="translate(303,201)"/>
<path d="M0 0 C5.63499084 1.38927194 10.92667863 2.625 16.75 2.625 C20.57495998 6.36100742 22.62405222 9.08329746 22.75 14.625 C22.09 15.285 21.43 15.945 20.75 16.625 C20.46125 17.264375 20.1725 17.90375 19.875 18.5625 C18.54693157 20.99729212 16.99725807 22.05191935 14.75 23.625 C14.75 23.955 14.75 24.285 14.75 24.625 C10.57262526 26.21638085 7.21839215 26.83778058 2.75 26.625 C3.08 25.635 3.41 24.645 3.75 23.625 C5.74571323 22.94560826 7.74594773 22.27938441 9.75 21.625 C10.41 20.635 11.07 19.645 11.75 18.625 C13.875 17.9375 13.875 17.9375 15.75 17.625 C15.09 17.295 14.43 16.965 13.75 16.625 C14.08 15.305 14.41 13.985 14.75 12.625 C13.43 12.295 12.11 11.965 10.75 11.625 C10.75 10.965 10.75 10.305 10.75 9.625 C10.02941406 9.33753906 9.30882812 9.05007812 8.56640625 8.75390625 C6.7803584 8.0380008 4.99624779 7.31722753 3.21484375 6.58984375 C2.38082031 6.25082031 1.54679687 5.91179687 0.6875 5.5625 C-0.14910156 5.22089844 -0.98570312 4.87929687 -1.84765625 4.52734375 C-3.97360823 3.72881544 -6.03686571 3.12078297 -8.25 2.625 C-8.25 1.635 -8.25 0.645 -8.25 -0.375 C-5.24768661 -1.87615669 -3.21116256 -0.79912493 0 0 Z " fill="#313131" transform="translate(355.25,221.375)"/>
<path d="M0 0 C1.32 0 2.64 0 4 0 C4 0.99 4 1.98 4 3 C5.65 3 7.3 3 9 3 C9.0272616 5.04159095 9.04651345 7.08328963 9.0625 9.125 C9.07410156 10.26195312 9.08570313 11.39890625 9.09765625 12.5703125 C9 16 9 16 8.49609375 19.01171875 C7.95049685 22.29818828 7.93815081 25.35924026 8 28.6875 C8.11038251 34.66885246 8.11038251 34.66885246 7 38 C5.02 38 3.04 38 1 38 C0.67 25.46 0.34 12.92 0 0 Z " fill="#404040" transform="translate(420,215)"/>
<path d="M0 0 C2.31 0.33 4.62 0.66 7 1 C6.44570312 2.03898438 5.89140625 3.07796875 5.3203125 4.1484375 C-0.38104229 15.04403253 -0.38104229 15.04403253 -3 27 C-1.02 26.67 0.96 26.34 3 26 C1.875 28 1.875 28 0 30 C-3.15231132 30.45971207 -5.06936366 30.57763635 -7.8125 28.875 C-9.42228269 26.33323785 -9.67109009 23.9601892 -10 21 C-10.79664063 21.84884766 -10.79664063 21.84884766 -11.609375 22.71484375 C-12.31578125 23.44832031 -13.0221875 24.18179688 -13.75 24.9375 C-14.44609375 25.66839844 -15.1421875 26.39929688 -15.859375 27.15234375 C-18.00599725 29.00517646 -19.23532932 29.60771565 -22 30 C-22 29.01 -22 28.02 -22 27 C-20.93910156 26.47792969 -19.87820312 25.95585937 -18.78515625 25.41796875 C-14.83395805 23.15460314 -12.69133708 20.20211054 -10.4375 16.3125 C-9.67771726 15.06601963 -8.91729901 13.8199264 -8.15625 12.57421875 C-7.79273438 11.96755371 -7.42921875 11.36088867 -7.0546875 10.73583984 C-5.58555204 8.31788773 -4.01873301 5.97074426 -2.4375 3.625 C-1.96183594 2.91601562 -1.48617187 2.20703125 -0.99609375 1.4765625 C-0.66738281 0.98929688 -0.33867187 0.50203125 0 0 Z " fill="#121212" transform="translate(178,222)"/>
<path d="M0 0 C0.33 0.66 0.66 1.32 1 2 C2.98 1.67 4.96 1.34 7 1 C6.175 1.680625 5.35 2.36125 4.5 3.0625 C1.69872883 5.80976644 1.69872883 5.80976644 1.5625 9.5 C2.01622776 14.04079292 2.01622776 14.04079292 4 18 C6.89827625 19.62133918 9.88686344 20.85339209 13 22 C13 22.99 13 23.98 13 25 C18.94 24.67 24.88 24.34 31 24 C30.67 24.66 30.34 25.32 30 26 C27.10215803 26.53774387 24.29828224 26.9369556 21.375 27.25 C20.57964844 27.353125 19.78429687 27.45625 18.96484375 27.5625 C13.80654589 28.13846758 9.97164905 27.77827246 5 26 C4.01 25.67 3.02 25.34 2 25 C1.34 24.67 0.68 24.34 0 24 C0 23.34 0 22.68 0 22 C-0.66 22 -1.32 22 -2 22 C-5 16.25 -5 16.25 -5 14 C-5.66 14 -6.32 14 -7 14 C-6.6875 12.0625 -6.6875 12.0625 -6 10 C-5.01 9.67 -4.02 9.34 -3 9 C-2.814375 7.329375 -2.814375 7.329375 -2.625 5.625 C-2 2 -2 2 0 0 Z " fill="#505050" transform="translate(296,221)"/>
<path d="M0 0 C-1.19437463 3.21110555 -2.60224231 6.26561221 -4.12890625 9.328125 C-4.72155273 10.52888672 -4.72155273 10.52888672 -5.32617188 11.75390625 C-6.1449587 13.40700193 -6.97298632 15.05555531 -7.81054688 16.69921875 C-10.52246934 22.24734163 -11.64673392 26.82714009 -12 33 C-10.35 33 -8.7 33 -7 33 C-7.33 33.66 -7.66 34.32 -8 35 C-10.64 35 -13.28 35 -16 35 C-17.97236129 31.63968076 -19.19848422 29.47918003 -18.671875 25.5546875 C-17.49643078 21.46564219 -16.01646799 17.82642557 -13.8125 14.1875 C-11.76913488 11.23053548 -11.76913488 11.23053548 -12.0625 8.375 C-12 6 -12 6 -9.625 3.25 C-6.09833368 0.22714316 -4.55129068 -0.11977081 0 0 Z " fill="#0B0B0B" transform="translate(222,217)"/>
<path d="M0 0 C0 0.99 0 1.98 0 3 C-1.32 3.33 -2.64 3.66 -4 4 C-4 4.66 -4 5.32 -4 6 C-3.01 6.33 -2.02 6.66 -1 7 C-2.65 7.33 -4.3 7.66 -6 8 C-6 7.34 -6 6.68 -6 6 C-10.19141135 8.23541939 -12.21299034 9.72162585 -13.875 14.25 C-14.24625 15.4875 -14.6175 16.725 -15 18 C-14.01 18.33 -13.02 18.66 -12 19 C-12.99 19.33 -13.98 19.66 -15 20 C-14.814375 20.61875 -14.62875 21.2375 -14.4375 21.875 C-14 24 -14 24 -15 26 C-13.68 26.33 -12.36 26.66 -11 27 C-11.474375 27.556875 -11.94875 28.11375 -12.4375 28.6875 C-14.12395996 31.18346074 -14.58953107 33.0446237 -15 36 C-15.99 36 -16.98 36 -18 36 C-18.226875 36.86625 -18.45375 37.7325 -18.6875 38.625 C-20.32279119 42.8300345 -21.68826748 44.90904965 -25 48 C-28.8125 48.375 -28.8125 48.375 -32 48 C-32 47.67 -32 47.34 -32 47 C-31.154375 46.87625 -30.30875 46.7525 -29.4375 46.625 C-24.10234476 44.10292661 -21.36008213 40.36695062 -19 35 C-18.60927987 31.39714912 -18.68674357 28.0154985 -18.86328125 24.3984375 C-19.17349782 16.68733982 -17.66921707 10.62503044 -12.71484375 4.62890625 C-8.93009256 1.03382369 -5.2309314 0 0 0 Z " fill="#303030" transform="translate(242,202)"/>
<path d="M0 0 C0.66 0.33 1.32 0.66 2 1 C1.79375 1.78375 1.5875 2.5675 1.375 3.375 C1.25125 4.24125 1.1275 5.1075 1 6 C1.66 6.66 2.32 7.32 3 8 C0.525 9.485 0.525 9.485 -2 11 C-0.68 11 0.64 11 2 11 C2.35646629 18.06331359 2.26269404 24.56441083 -1 31 C-1.66 31.33 -2.32 31.66 -3 32 C-3 31.34 -3 30.68 -3 30 C-3.99 30.33 -4.98 30.66 -6 31 C-6.07347656 29.78376953 -6.07347656 29.78376953 -6.1484375 28.54296875 C-6.59540756 21.92318801 -7.3251362 15.54113525 -8.6953125 9.046875 C-8.79585938 8.37140625 -8.89640625 7.6959375 -9 7 C-8 6 -8 6 -4.9375 5.9375 C-3.4834375 5.9684375 -3.4834375 5.9684375 -2 6 C-2.33 5.01 -2.66 4.02 -3 3 C-2.01 2.01 -1.02 1.02 0 0 Z " fill="#3E3E3E" transform="translate(267,204)"/>
<path d="M0 0 C-1 3 -1 3 -3.5 4.25 C-6.35267059 5.84986053 -6.35267059 5.84986053 -6.9375 9.4375 C-7.01460866 13.58708638 -7.01460866 13.58708638 -5 17 C-4.01 17.33 -3.02 17.66 -2 18 C-2 18.99 -2 19.98 -2 21 C-0.35 20.67 1.3 20.34 3 20 C3 20.66 3 21.32 3 22 C3.59167969 22.18175781 4.18335938 22.36351562 4.79296875 22.55078125 C13.30494164 25.25850509 13.30494164 25.25850509 17 28 C17 28.66 17 29.32 17 30 C18.65 30 20.3 30 22 30 C21.01 32.475 21.01 32.475 20 35 C21.485 35.495 21.485 35.495 23 36 C22.21625 36.268125 21.4325 36.53625 20.625 36.8125 C17.71885077 37.84814432 17.71885077 37.84814432 16 41 C13.375 41.1875 13.375 41.1875 11 41 C11.70125 40.113125 12.4025 39.22625 13.125 38.3125 C15.35755859 35.23985685 15.35755859 35.23985685 14.41015625 32.4609375 C12.70810593 29.49060038 11.3954131 28.73356714 8.3125 27.3125 C7.41660156 26.89226562 6.52070313 26.47203125 5.59765625 26.0390625 C2.86195689 24.86123418 2.86195689 24.86123418 -0.75 24.1875 C-4.79290242 22.71028566 -6.49677152 20.94577549 -8.890625 17.42578125 C-10.91179939 13.00624148 -11.01442069 8.71629918 -10 4 C-7.01218545 0.32925641 -4.67067669 -0.53379162 0 0 Z " fill="#2A2A2A" transform="translate(349,203)"/>
<path d="M0 0 C3.2730552 1.35680677 5.50349857 3.50349857 8 6 C8 6.99 8 7.98 8 9 C4.04172765 9.05785647 0.0835633 9.09354717 -3.875 9.125 C-5.00292969 9.14175781 -6.13085938 9.15851563 -7.29296875 9.17578125 C-8.90751953 9.18544922 -8.90751953 9.18544922 -10.5546875 9.1953125 C-12.04718018 9.21102295 -12.04718018 9.21102295 -13.56982422 9.22705078 C-16 9 -16 9 -18 7 C-12.40915972 0.08501334 -9.0791453 -0.96041735 0 0 Z " fill="#D8D8D8" transform="translate(314,210)"/>
<path d="M0 0 C0.66 0.33 1.32 0.66 2 1 C3.35511477 6.38838537 4.05079162 11.72793435 1.67578125 16.86328125 C-0.10174338 19.28086898 -1.5799294 21.21945376 -4 23 C-6.7421875 23.23046875 -6.7421875 23.23046875 -9 23 C-9.93207625 15.07735191 -6.95655528 8.79641855 -3 2 C-2.01 1.34 -1.02 0.68 0 0 Z " fill="#F6F6F6" transform="translate(219,226)"/>
<path d="M0 0 C0.99 0 1.98 0 3 0 C3.33 9.24 3.66 18.48 4 28 C9.445 26.02 9.445 26.02 15 24 C16.32 24.33 17.64 24.66 19 25 C16.69958987 27.65545736 14.79156697 28.59551199 11.4375 29.5625 C7.84760436 30.60178953 7.84760436 30.60178953 5 33 C3.35 33 1.7 33 0 33 C0 22.11 0 11.22 0 0 Z " fill="#B3B3B3" transform="translate(392,181)"/>
<path d="M0 0 C0.66 0.33 1.32 0.66 2 1 C2.05391993 2.79133978 2.09275571 4.58313899 2.125 6.375 C2.14820313 7.37273437 2.17140625 8.37046875 2.1953125 9.3984375 C2 12 2 12 0 14 C-5.09995098 15.7615722 -10.7406508 15.18437502 -16.0625 15.1875 C-17.16400391 15.19974609 -18.26550781 15.21199219 -19.40039062 15.22460938 C-20.98303711 15.22750977 -20.98303711 15.22750977 -22.59765625 15.23046875 C-23.56195557 15.23457764 -24.52625488 15.23868652 -25.51977539 15.24291992 C-28 15 -28 15 -31 13 C-29.35 12.01 -27.7 11.02 -26 10 C-26 10.66 -26 11.32 -26 12 C-22.77053202 11.86040799 -19.54151309 11.71221895 -16.3125 11.5625 C-15.40048828 11.52318359 -14.48847656 11.48386719 -13.54882812 11.44335938 C-12.21948242 11.38051758 -12.21948242 11.38051758 -10.86328125 11.31640625 C-10.05157471 11.27974854 -9.23986816 11.24309082 -8.40356445 11.20532227 C-5.87855515 10.98962569 -3.47399303 10.54100548 -1 10 C-0.67 6.7 -0.34 3.4 0 0 Z " fill="#232323" transform="translate(329,213)"/>
<path d="M0 0 C0.33 0 0.66 0 1 0 C1.09643411 10.05057726 1.09745114 19.99989746 0.21875 30.01953125 C-0.00179198 33.02441572 -0.03601543 35.98820926 0 39 C-1.32 39 -2.64 39 -4 39 C-4 38.34 -4 37.68 -4 37 C-4.66 36.67 -5.32 36.34 -6 36 C-5.01 36 -4.02 36 -3 36 C-3.08378906 34.85402344 -3.16757812 33.70804688 -3.25390625 32.52734375 C-3.35715253 30.99742154 -3.45999567 29.4674721 -3.5625 27.9375 C-3.61857422 27.18533203 -3.67464844 26.43316406 -3.73242188 25.65820312 C-4.03871192 20.94133636 -3.81850935 16.68369239 -3 12 C-2.80776365 10.52144142 -2.61924031 9.04238538 -2.4375 7.5625 C-2.293125 6.386875 -2.14875 5.21125 -2 4 C-2.99 3.67 -3.98 3.34 -5 3 C-3.68 3 -2.36 3 -1 3 C-0.67 2.01 -0.34 1.02 0 0 Z " fill="#2C2C2C" transform="translate(431,214)"/>
<path d="M0 0 C0.66 0.33 1.32 0.66 2 1 C1.67 1.33 1.34 1.66 1 2 C1.66 2.66 2.32 3.32 3 4 C0.95888458 4.48150942 -1.08291932 4.96010083 -3.125 5.4375 C-4.26195312 5.70433594 -5.39890625 5.97117187 -6.5703125 6.24609375 C-16.12106929 8.34551979 -26.70998406 9.80046107 -36 6 C-36.33 5.34 -36.66 4.68 -37 4 C-36.36610352 4.01571045 -35.73220703 4.0314209 -35.07910156 4.04760742 C-17.0823999 4.87363531 -17.0823999 4.87363531 0 0 Z " fill="#161616" transform="translate(111,254)"/>
<path d="M0 0 C0.99 0 1.98 0 3 0 C3.0272616 2.04159095 3.04651345 4.08328963 3.0625 6.125 C3.07410156 7.26195312 3.08570313 8.39890625 3.09765625 9.5703125 C3.0050505 12.82262652 2.53378158 15.79731054 2 19 C1.93477127 21.29083289 1.9141159 23.58335794 1.9375 25.875 C1.94652344 27.02742188 1.95554687 28.17984375 1.96484375 29.3671875 C1.97644531 30.23601562 1.98804688 31.10484375 2 32 C1.01 32 0.02 32 -1 32 C-1 26.39 -1 20.78 -1 15 C-1.66 14.67 -2.32 14.34 -3 14 C-2.33333333 11.33333333 -1.66666667 8.66666667 -1 6 C-1.66 5.67 -2.32 5.34 -3 5 C-1.125 1.125 -1.125 1.125 0 0 Z " fill="#CCCCCC" transform="translate(426,218)"/>
<path d="M0 0 C0 0.66 0 1.32 0 2 C-0.825 2.350625 -1.65 2.70125 -2.5 3.0625 C-3.325 3.701875 -4.15 4.34125 -5 5 C-5.29349787 7.38302746 -5.188449 9.55159543 -4.98046875 11.94140625 C-5 14 -5 14 -7 16 C-9 15.875 -9 15.875 -11 15 C-13.07055616 12.43645428 -13 10.82415234 -13 7.5 C-12 4 -12 4 -9.3125 1.5625 C-5.84678896 -0.07226936 -3.77450884 -0.35947703 0 0 Z " fill="#D0D0D0" transform="translate(354,205)"/>
<path d="M0 0 C5.70554718 0.46575895 9.21823326 1.81215551 14 5 C16.46604043 8.69906065 16.79491944 11.70905732 16 16 C14.19181165 19.41463667 11.81246545 21.57442286 8.375 23.375 C6 24 6 24 3 24 C3 23.34 3 22.68 3 22 C4.11375 21.566875 5.2275 21.13375 6.375 20.6875 C10.17512334 19.30088881 10.17512334 19.30088881 12 16 C12.51974286 12.70829524 12.16436011 11.28763019 10.5 8.375 C7.20564676 5.24536442 4.31447636 4.36625085 0 3 C0 2.01 0 1.02 0 0 Z " fill="#101010" transform="translate(134,165)"/>
<path d="M0 0 C1.74410156 0.42152344 1.74410156 0.42152344 3.5234375 0.8515625 C6.9780934 1.72958668 10.40086735 2.65607618 13.8125 3.6875 C13.8125 5.0075 13.8125 6.3275 13.8125 7.6875 C8.2850535 8.90353823 5.66798902 8.53746095 0.8125 5.6875 C-2.16024951 4.41346449 -5.02980271 3.38921051 -8.1875 2.6875 C-8.1875 1.6975 -8.1875 0.7075 -8.1875 -0.3125 C-5.2017387 -1.80538065 -3.20184657 -0.7774334 0 0 Z " fill="#CECECE" transform="translate(355.1875,221.3125)"/>
<path d="M0 0 C0.89203125 0.01804688 1.7840625 0.03609375 2.703125 0.0546875 C3.71632813 0.08949219 3.71632813 0.08949219 4.75 0.125 C4.42 0.785 4.09 1.445 3.75 2.125 C1.60546875 2.58203125 1.60546875 2.58203125 -1.0625 2.9375 C-4.60379421 3.59423074 -5.98260166 3.89102646 -8.75 6.3125 C-10.495829 9.58592938 -11.40133337 12.51816681 -12.25 16.125 C-11.59 16.125 -10.93 16.125 -10.25 16.125 C-10.58 19.095 -10.91 22.065 -11.25 25.125 C-12.57 25.125 -13.89 25.125 -15.25 25.125 C-14.5 20.375 -14.5 20.375 -12.25 18.125 C-13.24 17.795 -14.23 17.465 -15.25 17.125 C-14.26686123 11.30378358 -13.1146061 6.7852603 -9.25 2.125 C-6.10564029 0.11723785 -3.69208539 -0.09716014 0 0 Z " fill="#B5B5B5" transform="translate(304.25,204.875)"/>
<path d="M0 0 C0.99 0.33 1.98 0.66 3 1 C3.05785647 4.95827235 3.09354717 8.9164367 3.125 12.875 C3.14175781 14.00292969 3.15851563 15.13085938 3.17578125 16.29296875 C3.18222656 17.36933594 3.18867188 18.44570312 3.1953125 19.5546875 C3.20578613 20.54968262 3.21625977 21.54467773 3.22705078 22.56982422 C3 25 3 25 1 27 C-0.67845228 24.06302033 -1.24896245 21.96758171 -1.23046875 18.59375 C-1.22853516 17.76746094 -1.22660156 16.94117188 -1.22460938 16.08984375 C-1.21236328 15.23519531 -1.20011719 14.38054687 -1.1875 13.5 C-1.18685547 12.64535156 -1.18621094 11.79070312 -1.18554688 10.91015625 C-1.15870775 7.08707263 -1.0493661 3.69711827 0 0 Z " fill="#383838" transform="translate(390,186)"/>
<path d="M0 0 C3.3 0 6.6 0 10 0 C9.01 0.33 8.02 0.66 7 1 C7 5.29 7 9.58 7 14 C6.34 14 5.68 14 5 14 C5 13.34 5 12.68 5 12 C4.34 12 3.68 12 3 12 C2.67 10.35 2.34 8.7 2 7 C1.67 11.62 1.34 16.24 1 21 C0.67 21 0.34 21 0 21 C0 14.07 0 7.14 0 0 Z " fill="#565656" transform="translate(261,177)"/>
<path d="M0 0 C2.89696854 0.36982577 5.37621929 0.68810965 8 2 C8 2.99 8 3.98 8 5 C13.94 4.67 19.88 4.34 26 4 C25.67 4.66 25.34 5.32 25 6 C22.10215803 6.53774387 19.29828224 6.9369556 16.375 7.25 C15.57964844 7.353125 14.78429687 7.45625 13.96484375 7.5625 C8.74125162 8.14575823 4.95172726 7.7789047 0 6 C0.33 4.68 0.66 3.36 1 2 C0.34 1.67 -0.32 1.34 -1 1 C-0.67 0.67 -0.34 0.34 0 0 Z " fill="#7A7A7A" transform="translate(301,241)"/>
<path d="M0 0 C0.66 0.33 1.32 0.66 2 1 C1.79375 1.78375 1.5875 2.5675 1.375 3.375 C1.25125 4.24125 1.1275 5.1075 1 6 C1.66 6.66 2.32 7.32 3 8 C0.525 9.485 0.525 9.485 -2 11 C-0.68 11 0.64 11 2 11 C1.67 11.99 1.34 12.98 1 14 C-1.64 14 -4.28 14 -7 14 C-7.66 11.69 -8.32 9.38 -9 7 C-8 6 -8 6 -4.9375 5.9375 C-3.4834375 5.9684375 -3.4834375 5.9684375 -2 6 C-2.33 5.01 -2.66 4.02 -3 3 C-2.01 2.01 -1.02 1.02 0 0 Z " fill="#727272" transform="translate(267,204)"/>
<path d="M0 0 C0.33 0 0.66 0 1 0 C1.33 2.31 1.66 4.62 2 7 C3.32 6.67 4.64 6.34 6 6 C6 9.38023517 5.12544378 11.83468937 4 15 C3.01 15 2.02 15 1 15 C0.773125 15.86625 0.54625 16.7325 0.3125 17.625 C-1.32279119 21.8300345 -2.68826748 23.90904965 -6 27 C-9.8125 27.375 -9.8125 27.375 -13 27 C-13 26.67 -13 26.34 -13 26 C-12.154375 25.87625 -11.30875 25.7525 -10.4375 25.625 C-5.10730139 23.10526975 -2.34469726 19.3690169 0 14 C0.55375154 9.2661594 0.43027989 4.73990862 0 0 Z " fill="#3B3B3B" transform="translate(223,223)"/>
<path d="M0 0 C0 0.66 0 1.32 0 2 C0.99 2.33 1.98 2.66 3 3 C1.68 3.33 0.36 3.66 -1 4 C-1.12375 4.61875 -1.2475 5.2375 -1.375 5.875 C-2 8 -2 8 -4 10 C-3.67 10.99 -3.34 11.98 -3 13 C-5.97 12.505 -5.97 12.505 -9 12 C-8.54726428 7.133091 -7.35474936 4.5580675 -4 1 C-2 0 -2 0 0 0 Z " fill="#BFBFBF" transform="translate(236,208)"/>
<path d="M0 0 C-0.3125 2.375 -0.3125 2.375 -1 5 C-1.99 5.66 -2.98 6.32 -4 7 C-4 7.33 -4 7.66 -4 8 C-8.17737474 9.59138085 -11.53160785 10.21278058 -16 10 C-15.67 9.01 -15.34 8.02 -15 7 C-13.00428677 6.32060826 -11.00405227 5.65438441 -9 5 C-8.34 4.01 -7.68 3.02 -7 2 C-4.55618498 0.83918787 -2.71705736 0 0 0 Z " fill="#C8C8C8" transform="translate(374,238)"/>
<path d="M0 0 C0 2.31 0 4.62 0 7 C0.66 7.33 1.32 7.66 2 8 C1.67 9.32 1.34 10.64 1 12 C-0.98 12 -2.96 12 -5 12 C-5.33 11.01 -5.66 10.02 -6 9 C-6.66 8.67 -7.32 8.34 -8 8 C-7.01 8 -6.02 8 -5 8 C-5.061875 7.236875 -5.12375 6.47375 -5.1875 5.6875 C-5 3 -5 3 -3.625 1.1875 C-2 0 -2 0 0 0 Z " fill="#6B6B6B" transform="translate(232,230)"/>
<path d="M0 0 C1.65 0 3.3 0 5 0 C5 0.66 5 1.32 5 2 C5.66 2 6.32 2 7 2 C7 2.66 7 3.32 7 4 C7.99 4 8.98 4 10 4 C10 4.66 10 5.32 10 6 C10.99 5.67 11.98 5.34 13 5 C13.99 5.66 14.98 6.32 16 7 C15.01 8.485 15.01 8.485 14 10 C8.38829201 9.33979906 3.58006775 6.37563836 0 2 C0 1.34 0 0.68 0 0 Z " fill="#2F2F2F" transform="translate(228,242)"/>
<path d="M0 0 C0.66 0.66 1.32 1.32 2 2 C-2.02446483 11.01223242 -2.02446483 11.01223242 -6 13 C-9.25 13.6875 -9.25 13.6875 -12 14 C-12 13.34 -12 12.68 -12 12 C-13.32 11.67 -14.64 11.34 -16 11 C-15.28972656 10.80664062 -14.57945312 10.61328125 -13.84765625 10.4140625 C-12.92855469 10.15367187 -12.00945312 9.89328125 -11.0625 9.625 C-10.14597656 9.36976563 -9.22945313 9.11453125 -8.28515625 8.8515625 C-5.83254913 8.23339896 -5.83254913 8.23339896 -5 6 C-4.01 5.67 -3.02 5.34 -2 5 C-0.78130071 2.49552484 -0.78130071 2.49552484 0 0 Z " fill="#282828" transform="translate(375,237)"/>
<path d="M0 0 C0.05791844 3.12492251 0.09356746 6.24970766 0.125 9.375 C0.14175781 10.26445312 0.15851563 11.15390625 0.17578125 12.0703125 C0.18222656 12.92109375 0.18867188 13.771875 0.1953125 14.6484375 C0.20578613 15.43395996 0.21625977 16.21948242 0.22705078 17.02880859 C0 19 0 19 -2 21 C-2.66 17.04 -3.32 13.08 -4 9 C-4.99 9.33 -5.98 9.66 -7 10 C-4.27272727 0 -4.27272727 0 0 0 Z " fill="#D4D4D4" transform="translate(224,218)"/>
<path d="M0 0 C0 6.27 0 12.54 0 19 C-1.32 18.67 -2.64 18.34 -4 18 C-4.0809723 15.56183415 -4.14046972 13.12635616 -4.1875 10.6875 C-4.21263672 9.99720703 -4.23777344 9.30691406 -4.26367188 8.59570312 C-4.33807332 3.46200317 -4.33807332 3.46200317 -2.55078125 1.01953125 C-1 0 -1 0 0 0 Z " fill="#BFBFBF" transform="translate(395,215)"/>
<path d="M0 0 C0.33 0 0.66 0 1 0 C1 1.98 1 3.96 1 6 C1.99 6.33 2.98 6.66 4 7 C3.01 7.33 2.02 7.66 1 8 C1.2784375 8.928125 1.2784375 8.928125 1.5625 9.875 C2 12 2 12 1 14 C2.32 14.33 3.64 14.66 5 15 C4.01 15.495 4.01 15.495 3 16 C2.01 15.67 1.02 15.34 0 15 C-0.33 15.66 -0.66 16.32 -1 17 C-2.86440575 15.13559425 -2.17374427 12.1175383 -2.1875 9.625 C-2.20167969 8.46226562 -2.21585938 7.29953125 -2.23046875 6.1015625 C-2 3 -2 3 0 0 Z " fill="#202020" transform="translate(226,214)"/>
<path d="M0 0 C1.32 0 2.64 0 4 0 C4 0.99 4 1.98 4 3 C4.66 3.33 5.32 3.66 6 4 C5.01 5.32 4.02 6.64 3 8 C3.99 8.33 4.98 8.66 6 9 C6 9.66 6 10.32 6 11 C5.34 11 4.68 11 4 11 C4.33 12.65 4.66 14.3 5 16 C4.01 16 3.02 16 2 16 C1.34 10.72 0.68 5.44 0 0 Z " fill="#262626" transform="translate(420,215)"/>
<path d="M0 0 C-0.33 0.99 -0.66 1.98 -1 3 C-2.2065625 3.556875 -2.2065625 3.556875 -3.4375 4.125 C-6.92661081 6.67800791 -7.02142926 9.01317563 -7.73828125 13.13671875 C-7.82464844 13.75160156 -7.91101563 14.36648437 -8 15 C-8.66 15 -9.32 15 -10 15 C-10.77917697 4.95727457 -10.77917697 4.95727457 -7.8125 1.3125 C-4.89851072 -0.04736166 -3.16833849 -0.36209583 0 0 Z " fill="#272727" transform="translate(349,203)"/>
<path d="M0 0 C0 3 0 3 -2.25 5.5625 C-4.51797524 7.57275078 -6.23189141 8.87225206 -9 10 C-8.34 10.66 -7.68 11.32 -7 12 C-9.52475462 13.26237731 -11.31200466 13.09856404 -14.125 13.0625 C-15.03507813 13.05347656 -15.94515625 13.04445312 -16.8828125 13.03515625 C-17.58148438 13.02355469 -18.28015625 13.01195312 -19 13 C-19 12.67 -19 12.34 -19 12 C-15.535 11.505 -15.535 11.505 -12 11 C-12.99 10.34 -13.98 9.68 -15 9 C-14.34 8.34 -13.68 7.68 -13 7 C-12.22269531 7.0309375 -11.44539062 7.061875 -10.64453125 7.09375 C-7.19634297 6.97150994 -6.15427531 5.84134606 -3.6875 3.5 C-2.99011719 2.8503125 -2.29273438 2.200625 -1.57421875 1.53125 C-1.05472656 1.0259375 -0.53523438 0.520625 0 0 Z " fill="#808080" transform="translate(261,240)"/>
<path d="M0 0 C2.97 0 5.94 0 9 0 C9 0.66 9 1.32 9 2 C10.65 2.33 12.3 2.66 14 3 C14 4.32 14 5.64 14 7 C10.00465792 6.42923685 7.411827 5.09958585 4 3 C1.80869466 2.30420546 1.80869466 2.30420546 0 2 C0 1.34 0 0.68 0 0 Z " fill="#C8C8C8" transform="translate(312,205)"/>
<path d="M0 0 C1.98 0.495 1.98 0.495 4 1 C4 5.19161906 3.86556277 8.88857686 3 13 C2.01 12.67 1.02 12.34 0 12 C-0.19573608 10.56359829 -0.38127816 9.12580496 -0.5625 7.6875 C-0.66691406 6.88699219 -0.77132813 6.08648437 -0.87890625 5.26171875 C-1 3 -1 3 0 0 Z " fill="#B2B2B2" transform="translate(391,236)"/>
<path d="M0 0 C0.66 0.33 1.32 0.66 2 1 C1.3125 2.875 1.3125 2.875 0 5 C-1.6476038 5.71247732 -3.31763529 6.37400383 -5 7 C-8.03517428 9.124622 -10.38093918 11.38201821 -12.6875 14.25 C-13.450625 15.1575 -14.21375 16.065 -15 17 C-15.66 17 -16.32 17 -17 17 C-14.67596268 10.02788805 -5.96676463 3.97784309 0 0 Z " fill="#282828" transform="translate(211,220)"/>
<path d="M0 0 C0.33 0 0.66 0 1 0 C1 6.27 1 12.54 1 19 C-2.53477881 14.28696158 -2.63964183 12.67564124 -3 7 C-2.67 6.01 -2.34 5.02 -2 4 C-2.99 3.67 -3.98 3.34 -5 3 C-3.68 3 -2.36 3 -1 3 C-0.67 2.01 -0.34 1.02 0 0 Z " fill="#3A3A3A" transform="translate(431,214)"/>
<path d="M0 0 C1.32 0.33 2.64 0.66 4 1 C3.88637738 2.4800841 3.75877092 3.95910074 3.625 5.4375 C3.55539062 6.26121094 3.48578125 7.08492187 3.4140625 7.93359375 C3.27742188 8.61550781 3.14078125 9.29742187 3 10 C0.04335481 11.4783226 -2.74229737 11.06032783 -6 11 C-5.67 10.34 -5.34 9.68 -5 9 C-3.02 9 -1.04 9 1 9 C0.67 6.03 0.34 3.06 0 0 Z " fill="#C3C3C3" transform="translate(325,213)"/>
<path d="M0 0 C0.99 0.33 1.98 0.66 3 1 C3.38133299 2.9914056 3.71325582 4.99279077 4 7 C3 8 3 8 0.4375 8.0625 C-0.366875 8.041875 -1.17125 8.02125 -2 8 C-1.67 7.01 -1.34 6.02 -1 5 C-1.99 4.34 -2.98 3.68 -4 3 C-2.1875 1.4375 -2.1875 1.4375 0 0 Z " fill="#878787" transform="translate(371,229)"/>
<path d="M0 0 C0.99 0 1.98 0 3 0 C3 2.97 3 5.94 3 9 C1.35 9.33 -0.3 9.66 -2 10 C-1.67 8.68 -1.34 7.36 -1 6 C-1.66 5.67 -2.32 5.34 -3 5 C-1.125 1.125 -1.125 1.125 0 0 Z " fill="#A5A5A5" transform="translate(426,218)"/>
<path d="M0 0 C0.66 0.33 1.32 0.66 2 1 C1.9375 3.25 1.9375 3.25 1 6 C-1.24865149 7.86135162 -3.27982948 8.78061322 -6 10 C-6.99 9.67 -7.98 9.34 -9 9 C-8.67 8.01 -8.34 7.02 -8 6 C-6.02 6 -4.04 6 -2 6 C-2.33 5.01 -2.66 4.02 -3 3 C-2.01 2.01 -1.02 1.02 0 0 Z " fill="#CFCFCF" transform="translate(267,204)"/>
<path d="M0 0 C1.32 0 2.64 0 4 0 C4 1.32 4 2.64 4 4 C4.66 4 5.32 4 6 4 C5.67 4.99 5.34 5.98 5 7 C2.9375 7.6875 2.9375 7.6875 1 8 C1 7.01 1 6.02 1 5 C0.34 5 -0.32 5 -1 5 C-0.67 3.35 -0.34 1.7 0 0 Z " fill="#C4C4C4" transform="translate(423,210)"/>
<path d="M0 0 C1.32 0 2.64 0 4 0 C4 3.63 4 7.26 4 11 C3.34 11 2.68 11 2 11 C2 10.34 2 9.68 2 9 C1.34 9 0.68 9 0 9 C0 6.03 0 3.06 0 0 Z " fill="#929292" transform="translate(264,180)"/>
<path d="M0 0 C0.99 0 1.98 0 3 0 C3 5.61 3 11.22 3 17 C2.67 17 2.34 17 2 17 C-0.29612756 5.47835991 -0.29612756 5.47835991 0 0 Z " fill="#B0B0B0" transform="translate(392,181)"/>
<path d="M0 0 C1.99954746 -0.04254356 4.00041636 -0.04080783 6 0 C6.33 0.33 6.66 0.66 7 1 C9.32817964 1.36760731 11.6618385 1.70241581 14 2 C14.33 2.99 14.66 3.98 15 5 C9.33895411 4.50341703 5.12325529 3.45489316 0 1 C0 0.67 0 0.34 0 0 Z " fill="#D0D0D0" transform="translate(342,244)"/>
<path d="M0 0 C0.33 0.99 0.66 1.98 1 3 C1.66 3 2.32 3 3 3 C3 6.3 3 9.6 3 13 C2.01 13 1.02 13 0 13 C0 8.71 0 4.42 0 0 Z " fill="#C2C2C2" transform="translate(425,237)"/>
<path d="M0 0 C3 1 3 1 4.6875 4.0625 C5.120625 5.031875 5.55375 6.00125 6 7 C5.01 7.99 4.02 8.98 3 10 C2.34 8.02 1.68 6.04 1 4 C0.34 4 -0.32 4 -1 4 C-0.67 2.68 -0.34 1.36 0 0 Z " fill="#A8A8A8" transform="translate(290,231)"/>
<path d="M0 0 C0.33 0.66 0.66 1.32 1 2 C1.66 2 2.32 2 3 2 C2.67 4.97 2.34 7.94 2 11 C0.68 11 -0.64 11 -2 11 C-1.25 6.25 -1.25 6.25 1 4 C0.01 3.67 -0.98 3.34 -2 3 C-1 1 -1 1 0 0 Z " fill="#B1B1B1" transform="translate(291,219)"/>
<path d="M0 0 C0.73046875 1.73828125 0.73046875 1.73828125 1 4 C-0.51171875 6.10546875 -0.51171875 6.10546875 -2.6875 8.1875 C-3.74517578 9.22970703 -3.74517578 9.22970703 -4.82421875 10.29296875 C-6.97612297 11.98126703 -8.33004812 12.59619238 -11 13 C-11 12.01 -11 11.02 -11 10 C-9.9275 9.46375 -8.855 8.9275 -7.75 8.375 C-3.87374779 6.18920261 -2.17850011 3.83416019 0 0 Z " fill="#252525" transform="translate(167,239)"/>
<path d="M0 0 C0.33 0.99 0.66 1.98 1 3 C0.34 3.66 -0.32 4.32 -1 5 C-2.03842565 7.31648799 -3.0421975 9.64903024 -4 12 C-4.33 12 -4.66 12 -5 12 C-4.50769231 4.61538462 -4.50769231 4.61538462 -1.9375 1.5 C-1.298125 1.005 -0.65875 0.51 0 0 Z " fill="#CDCDCD" transform="translate(295,209)"/>
<path d="M0 0 C0.33 0 0.66 0 1 0 C1.66 5.28 2.32 10.56 3 16 C2.34 16.33 1.68 16.66 1 17 C-0.53266582 13.93466836 -0.10276471 10.73245728 -0.0625 7.375 C-0.05798828 6.66859375 -0.05347656 5.9621875 -0.04882812 5.234375 C-0.03703875 3.48954725 -0.01910324 1.744763 0 0 Z " fill="#DADADA" transform="translate(393,192)"/>
<path d="M0 0 C1.32 0 2.64 0 4 0 C4 0.66 4 1.32 4 2 C4.66 2.33 5.32 2.66 6 3 C5.67 4.32 5.34 5.64 5 7 C4.01 7 3.02 7 2 7 C0.5393715 4.35261084 0 3.10551666 0 0 Z " fill="#BABABA" transform="translate(228,235)"/>
<path d="M0 0 C0 0.66 0 1.32 0 2 C2.64 1.67 5.28 1.34 8 1 C7.67 1.66 7.34 2.32 7 3 C2.71 3 -1.58 3 -6 3 C-6 2.34 -6 1.68 -6 1 C-3 0 -3 0 0 0 Z " fill="#ADADAD" transform="translate(309,222)"/>
<path d="M0 0 C0 0.33 0 0.66 0 1 C-1.5823006 1.33820166 -3.16589375 1.67035939 -4.75 2 C-6.07257813 2.2784375 -6.07257813 2.2784375 -7.421875 2.5625 C-10 3 -10 3 -14 3 C-14 2.34 -14 1.68 -14 1 C-8.83430559 -0.79217969 -5.48946087 -1.12029814 0 0 Z " fill="#B7B7B7" transform="translate(252,205)"/>
<path d="M0 0 C0.66 0 1.32 0 2 0 C2 2.31 2 4.62 2 7 C1.01 7.33 0.02 7.66 -1 8 C-1.625 5.125 -1.625 5.125 -2 2 C-1.34 1.34 -0.68 0.68 0 0 Z " fill="#BBBBBB" transform="translate(267,219)"/>
<path d="M0 0 C2.31 0.33 4.62 0.66 7 1 C6.67 1.99 6.34 2.98 6 4 C3.69 4 1.38 4 -1 4 C-0.67 2.68 -0.34 1.36 0 0 Z " fill="#3C3C3C" transform="translate(303,201)"/>
<path d="M0 0 C0.66 0.33 1.32 0.66 2 1 C1.67 1.33 1.34 1.66 1 2 C1.66 2.66 2.32 3.32 3 4 C0.03 4.66 -2.94 5.32 -6 6 C-3.62264151 1.24528302 -3.62264151 1.24528302 0 0 Z " fill="#272727" transform="translate(111,254)"/>
<path d="M0 0 C1.98 0 3.96 0 6 0 C6 0.66 6 1.32 6 2 C2.04 3.98 2.04 3.98 -2 6 C-1 2 -1 2 0 0 Z " fill="#C4C4C4" transform="translate(348,205)"/>
<path d="M0 0 C1.98 0.66 3.96 1.32 6 2 C6 3.32 6 4.64 6 6 C5.34 6 4.68 6 4 6 C4 5.34 4 4.68 4 4 C3.01 4 2.02 4 1 4 C1 3.34 1 2.68 1 2 C0.34 1.67 -0.32 1.34 -1 1 C-0.67 0.67 -0.34 0.34 0 0 Z " fill="#9E9E9E" transform="translate(234,242)"/>
<path d="M0 0 C2.475 0.495 2.475 0.495 5 1 C5 2.32 5 3.64 5 5 C3.35 5 1.7 5 0 5 C0 3.35 0 1.7 0 0 Z " fill="#A3A3A3" transform="translate(227,223)"/>
<path d="M0 0 C2.79872437 2.52788007 4.45773019 4.20411134 5 8 C2.3333581 9.33332095 0.83319697 8.67102033 -2 8 C-1.01 7.67 -0.02 7.34 1 7 C0.67 4.69 0.34 2.38 0 0 Z " fill="#3B3B3B" transform="translate(325,205)"/>
<path d="M0 0 C0.66 0.33 1.32 0.66 2 1 C0.94901234 3.86632997 0.33137046 4.83006643 -2.4375 6.25 C-5 7 -5 7 -8 7 C-5.42215154 4.35247996 -3.08351902 2.05567935 0 0 Z " fill="#363636" transform="translate(211,220)"/>
<path d="M0 0 C-1.125 1.5 -1.125 1.5 -3 3 C-6.1875 3.1875 -6.1875 3.1875 -9 3 C-6.27596221 -1.08605669 -4.4643819 -1.38549783 0 0 Z " fill="#C7C7C7" transform="translate(411,206)"/>
<path d="M0 0 C0 3 0 3 -2.3125 5.625 C-5 8 -5 8 -8 9 C-6.4169423 4.7257442 -3.49431596 2.73468206 0 0 Z " fill="#B7B7B7" transform="translate(261,240)"/>
<path d="M0 0 C0.99 0 1.98 0 3 0 C2.67 1.32 2.34 2.64 2 4 C0.35 4.33 -1.3 4.66 -3 5 C-1.125 1.125 -1.125 1.125 0 0 Z " fill="#D0D0D0" transform="translate(426,218)"/>
<path d="M0 0 C0.66 0.99 1.32 1.98 2 3 C0.9375 4.5 0.9375 4.5 -1 6 C-4.6875 6.1875 -4.6875 6.1875 -8 6 C-8 5.67 -8 5.34 -8 5 C-7.05125 4.731875 -6.1025 4.46375 -5.125 4.1875 C-1.74732727 3.25013412 -1.74732727 3.25013412 0 0 Z " fill="#444444" transform="translate(218,244)"/>
<path d="M0 0 C0.99 0.33 1.98 0.66 3 1 C2.34 1 1.68 1 1 1 C0.731875 1.94875 0.46375 2.8975 0.1875 3.875 C-1 7 -1 7 -4 9 C-3.46930939 5.17902761 -2.50298434 2.93828597 0 0 Z " fill="#252525" transform="translate(223,237)"/>
<path d="M0 0 C-0.33 1.32 -0.66 2.64 -1 4 C-2.65 4 -4.3 4 -6 4 C-5.67 3.01 -5.34 2.02 -5 1 C-3 0 -3 0 0 0 Z " fill="#C1C1C1" transform="translate(375,233)"/>
<path d="M0 0 C0.66 0.66 1.32 1.32 2 2 C-1.3340947 4.19097652 -4.04179141 5.43454163 -8 6 C-8 5.34 -8 4.68 -8 4 C-6.865625 3.525625 -5.73125 3.05125 -4.5625 2.5625 C-1.24259834 1.36377917 -1.24259834 1.36377917 0 0 Z " fill="#292929" transform="translate(145,183)"/>
<path d="M0 0 C2.31 0.33 4.62 0.66 7 1 C6.67 1.66 6.34 2.32 6 3 C3.69 3 1.38 3 -1 3 C-0.67 2.01 -0.34 1.02 0 0 Z " fill="#242424" transform="translate(243,249)"/>
<path d="M0 0 C0.66 0.33 1.32 0.66 2 1 C1.67 2.65 1.34 4.3 1 6 C0.01 6.33 -0.98 6.66 -2 7 C-2.6875 5.1875 -2.6875 5.1875 -3 3 C-1.5625 1.25 -1.5625 1.25 0 0 Z " fill="#C1C1C1" transform="translate(267,204)"/>
<path d="M0 0 C1.65 0 3.3 0 5 0 C5 0.66 5 1.32 5 2 C1.535 3.485 1.535 3.485 -2 5 C-1.34 3.35 -0.68 1.7 0 0 Z " fill="#B7B7B7" transform="translate(414,204)"/>
<path d="M0 0 C1.32 0 2.64 0 4 0 C4 1.65 4 3.3 4 5 C2.68 4.67 1.36 4.34 0 4 C0 2.68 0 1.36 0 0 Z " fill="#D9D9D9" transform="translate(264,180)"/>
<path d="M0 0 C2.31 0.33 4.62 0.66 7 1 C6.01 2.485 6.01 2.485 5 4 C3.02 3.34 1.04 2.68 -1 2 C-0.67 1.34 -0.34 0.68 0 0 Z " fill="#3B3B3B" transform="translate(346,247)"/>
<path d="M0 0 C2.31 0 4.62 0 7 0 C6.67 0.99 6.34 1.98 6 3 C3.69 2.67 1.38 2.34 -1 2 C-0.67 1.34 -0.34 0.68 0 0 Z " fill="#929292" transform="translate(262,215)"/>
</svg>
